<svg id="visual" viewBox="0 0 960 540" width="960" height="540" xmlns="http://www.w3.org/2000/svg" xmlns:xlink="http://www.w3.org/1999/xlink" version="1.1"><rect x="0" y="0" width="960" height="540" fill="#FFFFFF"></rect><defs><linearGradient id="grad1_0" x1="43.8%" y1="100%" x2="100%" y2="0%"><stop offset="14.444444444444446%" stop-color="#ffffff" stop-opacity="1"></stop><stop offset="85.55555555555554%" stop-color="#ffffff" stop-opacity="1"></stop></linearGradient></defs><defs><linearGradient id="grad2_0" x1="0%" y1="100%" x2="56.3%" y2="0%"><stop offset="14.444444444444446%" stop-color="#ffffff" stop-opacity="1"></stop><stop offset="85.55555555555554%" stop-color="#ffffff" stop-opacity="1"></stop></linearGradient></defs><g transform="translate(960, 540)"><path d="M-459 0C-430.9 -70.5 -402.8 -141.1 -368.1 -212.5C-333.3 -283.9 -291.9 -356.3 -229.5 -397.5C-167.1 -438.7 -83.5 -448.9 0 -459L0 0Z" fill="#4FC3F7"></path></g><g transform="translate(0, 0)"><path d="M459 0C447.5 81.1 435.9 162.2 397.5 229.5C359.1 296.8 293.7 350.3 223 386.2C152.3 422.2 76.1 440.6 0 459L0 0Z" fill="#4FC3F7"></path></g></svg>