<svg id="visual" viewBox="0 0 960 540" width="960" height="540" xmlns="http://www.w3.org/2000/svg" xmlns:xlink="http://www.w3.org/1999/xlink" version="1.1"><rect x="0" y="0" width="960" height="540" fill="#FFFFFF"></rect><defs><linearGradient id="grad1_0" x1="43.8%" y1="100%" x2="100%" y2="0%"><stop offset="14.444444444444446%" stop-color="#ffffff" stop-opacity="1"></stop><stop offset="85.55555555555554%" stop-color="#ffffff" stop-opacity="1"></stop></linearGradient></defs><defs><linearGradient id="grad2_0" x1="0%" y1="100%" x2="56.3%" y2="0%"><stop offset="14.444444444444446%" stop-color="#ffffff" stop-opacity="1"></stop><stop offset="85.55555555555554%" stop-color="#ffffff" stop-opacity="1"></stop></linearGradient></defs><g transform="translate(960, 540)"><path d="M-459 0C-449.5 -84.6 -439.9 -169.1 -397.5 -229.5C-355.1 -289.9 -279.7 -326 -208 -360.3C-136.3 -394.5 -68.1 -426.7 0 -459L0 0Z" fill="#F7770F"></path></g><g transform="translate(0, 0)"><path d="M459 0C447.7 81.6 436.5 163.1 397.5 229.5C358.5 295.9 291.9 347.1 221 382.8C150.1 418.5 75.1 438.8 0 459L0 0Z" fill="#F7770F"></path></g></svg>