<svg id="visual" viewBox="0 0 960 540" width="960" height="540" xmlns="http://www.w3.org/2000/svg" xmlns:xlink="http://www.w3.org/1999/xlink" version="1.1"><rect x="0" y="0" width="960" height="540" fill="#FFFFFF"></rect><defs><linearGradient id="grad1_0" x1="43.8%" y1="100%" x2="100%" y2="0%"><stop offset="14.444444444444446%" stop-color="#ffffff" stop-opacity="1"></stop><stop offset="85.55555555555554%" stop-color="#ffffff" stop-opacity="1"></stop></linearGradient></defs><defs><linearGradient id="grad2_0" x1="0%" y1="100%" x2="56.3%" y2="0%"><stop offset="14.444444444444446%" stop-color="#ffffff" stop-opacity="1"></stop><stop offset="85.55555555555554%" stop-color="#ffffff" stop-opacity="1"></stop></linearGradient></defs><g transform="translate(960, 540)"><path d="M-378 0C-368.6 -66.9 -359.2 -133.9 -327.4 -189C-295.5 -244.1 -241.3 -287.4 -183 -317C-124.7 -346.5 -62.4 -362.2 0 -378L0 0Z" fill="#F7770F"></path></g><g transform="translate(0, 0)"><path d="M378 0C368.7 67.1 359.3 134.1 327.4 189C295.4 243.9 240.8 286.6 182.5 316.1C124.2 345.6 62.1 361.8 0 378L0 0Z" fill="#F7770F"></path></g></svg>